# AST/ASF file generated using VICON BodyLanguage
# -----------------------------------------------
:version 1.10
:name VICON
:units
  mass 1.0
  length 0.45
  angle deg
:documentation
   .ast/.asf automatically generated from VICON data using
   VICON BodyBuilder and BodyLanguage model FoxedUp or BRILLIANT.MOD
:root
   order TX TY TZ RX RY RZ
   axis XYZ
   position 0 0 0  
   orientation 0 0 0 
:bonedata
  begin
     id 1 
     name lhipjoint
     direction 0.601702 -0.665326 0.441924 
     length 2.60689 
     axis 0 0 0  XYZ
  end
  begin
     id 2 
     name lfemur
     direction 0.34202 -0.939693 0  
     length 6.99849  
     axis 0 0 20  XYZ
    dof rx ry rz
    limits (-160.0 20.0)
           (-70.0 70.0)
           (-60.0 70.0)
  end
  begin
     id 3 
     name ltibia
     direction 0.34202 -0.939693 0   
     length 7.33734   
     axis 0 0 20   XYZ
    dof rx
    limits (-10.0 170.0)
  end
  begin
     id 4 
     name lfoot
     direction 0.0879468 -0.241632 0.966374   
     length 1.95247   
     axis -90 7.62852e-016 20   XYZ
    dof rx rz
    limits (-45.0 90.0)
           (-70.0 20.0)
  end
  begin
     id 5 
     name ltoes
     direction 1.53555e-011 -4.22053e-011 1   
     length 0.981458   
     axis -90 7.62852e-016 20   XYZ
    dof rx
    limits (-90.0 20.0)
  end
  begin
     id 6 
     name rhipjoint
     direction -0.524152 -0.709394 0.471195   
     length 2.44495  
     axis 0 0 0  XYZ 
  end
  begin
     id 7 
     name rfemur
     direction -0.34202 -0.939693 0   
     length 6.63298   
     axis 0 0 -20   XYZ
    dof rx ry rz
    limits (-160.0 20.0)
           (-70.0 70.0)
           (-70.0 60.0)
  end
  begin
     id 8 
     name rtibia
     direction -0.34202 -0.939693 0   
     length 7.43066   
     axis 0 0 -20   XYZ
    dof rx
    limits (-10.0 170.0)
 end
 begin
     id 9 
     name rfoot
     direction -0.113818 -0.312714 0.943003   
     length 2.04792  
     axis -90 -7.62852e-016 -20   XYZ
    dof rx rz
    limits (-45.0 90.0)
           (-20.0 70.0)
  end
  begin
     id 10 
     name rtoes
     direction -1.53508e-011 -4.21689e-011 1   
     length 1.02013   
     axis -90 -7.62852e-016 -20   XYZ
    dof rx
    limits (-90.0 20.0)
  end
  begin
     id 11 
     name lowerback
     direction -0.0334041 0.990787 -0.131244   
     length 2.12417   
     axis 0 0 0   XYZ
    dof rx ry rz
    limits (-20.0 45.0)
           (-30.0 30.0)
           (-30.0 30.0)
  end
  begin
     id 12 
     name upperback
     direction -0.00386223 0.999243 -0.0387184   
     length 2.13824   
     axis 0 0 0   XYZ
    dof rx ry rz
    limits (-20.0 45.0)
           (-30.0 30.0)
           (-30.0 30.0)
  end
  begin
     id 13 
     name thorax
     direction 0.00911962 0.999708 0.0223632   
     length 2.17223   
     axis 0 0 0   XYZ
    dof rx ry rz
    limits (-20.0 45.0)
           (-30.0 30.0)
           (-30.0 30.0)
  end
  begin
     id 14 
     name lowerneck
     direction 0.0180441 0.990527 0.136127   
     length 1.79499   
     axis 0 0 0   XYZ
    dof rx ry rz
    limits (-20.0 45.0)
           (-30.0 30.0)
           (-30.0 30.0)
  end
  begin
     id 15 
     name upperneck
     direction 0.00566481 0.961662 -0.274179   
     length 1.81138   
     axis 0 0 0   XYZ
    dof rx ry rz
    limits (-20.0 45.0)
           (-30.0 30.0)
           (-30.0 30.0)
  end
  begin
     id 16
     name head
     direction 0.000922185 0.994286 -0.106749  
     length 1.84109  
     axis 0 0 0   XYZ
    dof rx ry rz
    limits (-20.0 45.0)
           (-30.0 30.0)
           (-30.0 30.0)
  end
  begin
     id 17 
     name lclavicle
     direction 0.916316 0.39017 -0.0901807  
     length 3.48327  
     axis 0 0 0   XYZ
    dof ry rz
    limits (-20.0 10.0)
           (0.0 20.0)
  end
  begin
     id 18 
     name lhumerus
     direction 1 -4.4897e-011 -7.31988e-029   
     length 4.85247   
     axis 180 -30 -90   XYZ
    dof rx ry rz
    limits (-60.0 90.0)
           (-90.0 90.0)
           (-90.0 90.0)
  end
  begin
     id 19
     name lradius
     direction 1 -4.4895e-011 9.36002e-027   
     length 3.55584   
     axis 180 -30 -90   XYZ
    dof rx
    limits (-10.0 170.0)
  end
  begin
     id 20
     name lwrist
     direction 1 -4.48975e-011 1.73237e-026   
     length 1.77792   
     axis -9.60847e-015 90 90   XYZ
    dof ry
    limits (-180.0 0.0)
 end
  begin
     id 21 
     name lhand
     direction 1 -4.48951e-011 3.46425e-026   
     length 0.693203   
     axis -2.21073e-014 90 90   XYZ
    dof rx rz
    limits (-90.0 90.0)
           (-45.0 45.0)
  end
  begin
     id 22 
     name lfingers
     direction 1 -4.48937e-011 6.92793e-026   
     length 0.558878   
     axis -4.42155e-014 90 90   XYZ
    dof rx
    limits (0.0 90.0)
  end
  begin
     id 23
     name lthumb
     direction 0.707107 -6.34959e-011 0.707107   
     length 0.802441   
     axis -90 45 6.0103e-014   XYZ
    dof rx rz
    limits (-45.0 45.0)
           (-45.0 45.0)
  end
  begin
     id 24 
     name rclavicle
     direction -0.932839 0.352129 -0.0762679   
     length 3.52686  
     axis 0 0 0   XYZ 
    dof ry rz
    limits (-10.0 20.0)
           (-20.0 0.0)
  end
  begin
     id 25 
     name rhumerus
     direction -1 -4.48974e-011 2.90424e-028  
     length 4.64462   
     axis 180 30 90   XYZ
    dof rx ry rz
    limits (-90.0 60.0)
           (-90.0 90.0)
           (-90.0 90.0)
  end
  begin
     id 26 
     name rradius
     direction -1 -4.48956e-011 7.17421e-027   
     length 3.40703   
     axis 180 30 90   XYZ
    dof rx
    limits (-10.0 170.0)
  end
  begin
     id 27 
     name rwrist
     direction -1 -4.48971e-011 1.73232e-026   
     length 1.70352   
     axis -9.60847e-015 -90 -90   XYZ
    dof ry
    limits (-180.0 0.0)
  end
  begin
     id 28
     name rhand
     direction -1 -4.49004e-011 3.46531e-026   
     length 0.619577   
     axis -2.21073e-014 -90 -90   XYZ
    dof rx rz
    limits (-90.0 90.0)
           (-45.0 45.0)
  end
  begin
     id 29
     name rfingers
     direction -1 -4.48859e-011 6.92483e-026   
     length 0.499519   
     axis -4.42155e-014 -90 -90   XYZ
    dof rx
    limits (0.0 90.0)
  end
  begin
     id 30
     name rthumb
     direction -0.707107 -6.34911e-011 0.707107   
     length 0.717212   
     axis -90 -45 -6.0103e-014   XYZ
    dof rx rz
    limits (-45.0 45.0)
           (-45.0 45.0)
  end
:hierarchy
  begin
    root lhipjoint rhipjoint lowerback
    lhipjoint lfemur
    lfemur ltibia
    ltibia lfoot
    lfoot ltoes
    rhipjoint rfemur
    rfemur rtibia
    rtibia rfoot
    rfoot rtoes
    lowerback upperback
    upperback thorax
    thorax lowerneck lclavicle rclavicle
    lowerneck upperneck
    upperneck head
    lclavicle lhumerus
    lhumerus lradius
    lradius lwrist
    lwrist lhand lthumb
    lhand lfingers
    rclavicle rhumerus
    rhumerus rradius
    rradius rwrist
    rwrist rhand rthumb
    rhand rfingers
  end

#!OML:ASF Y:\EmotionMaleHayes\Project 1\Capture day 1\Session 1\Male1.ASF
:FULLY-SPECIFIED
:DEGREES
195
root -28.2166 16.993 2.66419 114.821 86.116 117.221
lowerback 4.2482 0.801641 -3.59423
upperback 0.89898 0.918603 -0.487416
thorax -1.50535 0.479995 1.46382
lowerneck -22.4876 2.71804 4.74074
upperneck 28.3638 3.13961 -1.94109
head 13.4395 1.75639 -0.97004
rclavicle -1.41323e-015 2.78299e-015
rhumerus -9.30029 29.2316 -74.2765
rradius 38.2794
rwrist -1.55539
rhand -6.58842 -32.2704
rfingers 7.12502
rthumb 19.2666 -61.336
lclavicle -1.41323e-015 2.78299e-015
lhumerus -0.224801 -30.6539 65.4018
lradius 38.7586
lwrist 1.27055
lhand -6.83945 -25.3833
lfingers 7.12502
lthumb 19.0252 3.70625
rfemur 11.8597 -7.18263 13.9326
rtibia 5.33501
rfoot -19.8098 -3.22328
rtoes 12.233
lfemur 12.2237 -0.307621 -14.9199
ltibia 2.75257
lfoot -13.0661 11.1512
ltoes -14.3016
196
root -28.2067 16.9881 2.6825 114.588 85.9317 117.066
lowerback 4.36218 0.764274 -3.6917
upperback 0.893783 0.859448 -0.506678
thorax -1.57244 0.452257 1.50049
lowerneck -22.5004 2.72292 4.73856
upperneck 28.4011 3.16163 -1.97943
head 13.4593 1.76092 -0.980634
rclavicle 1.33248e-015 -1.90833e-014
rhumerus -8.90075 29.6212 -73.9592
rradius 38.4047
rwrist -2.01932
rhand -6.58946 -32.5698
rfingers 7.12502
rthumb 19.2656 -61.6355
lclavicle 1.33248e-015 -1.90833e-014
lhumerus 0.118708 -30.5582 65.0366
lradius 38.9474
lwrist 1.32884
lhand -6.1887 -25.5667
lfingers 7.12502
lthumb 19.651 3.46012
rfemur 12.0194 -7.64697 13.6002
rtibia 5.37955
rfoot -19.6617 -2.75618
rtoes 12.9469
lfemur 12.1726 -0.146137 -15.0106
ltibia 3.10564
lfoot -13.2063 10.8755
ltoes -14.0373
197
root -28.1995 16.9902 2.70126 113.981 85.8881 116.482
lowerback 4.40686 0.818817 -3.59193
upperback 0.914173 0.934793 -0.582841
thorax -1.57767 0.489551 1.3615
lowerneck -22.5849 2.69571 4.88845
upperneck 28.4556 3.07931 -2.0342
head 13.5007 1.73392 -1.04187
rclavicle -8.65956e-015 1.59028e-015
rhumerus -8.47074 29.5538 -73.6444
rradius 38.5182
rwrist -1.88251
rhand -6.58606 -32.6508
rfingers 7.12502
rthumb 19.2689 -61.7162
lclavicle -8.65956e-015 1.59028e-015
lhumerus 0.688392 -30.8146 64.5688
lradius 39.1521
lwrist 1.26235
lhand -6.41422 -25.4674
lfingers 7.12502
lthumb 19.4341 3.58144
rfemur 12.0684 -7.42888 13.6755
rtibia 5.28422
rfoot -19.5823 -2.87757
rtoes 14.2557
lfemur 12.1033 -0.466573 -15.1517
ltibia 3.38202
lfoot -13.5914 11.1044
ltoes -12.9211
198
root -28.1925 16.9946 2.72075 115.298 85.9477 117.769
lowerback 4.35387 0.817804 -3.41367
upperback 0.94974 0.945129 -0.537054
thorax -1.50998 0.492419 1.30919
lowerneck -22.6107 2.66772 4.85988
upperneck 28.4973 3.05745 -2.05445
head 13.5224 1.71906 -1.04882
rclavicle 1.58096e-015 -4.37326e-015
rhumerus -7.9419 29.4703 -73.196
rradius 38.5931
rwrist -1.53118
rhand -6.49208 -32.6445
rfingers 7.12502
rthumb 19.3593 -61.7009
lclavicle 1.58096e-015 -4.37326e-015
lhumerus 1.26791 -30.8207 64.2489
lradius 39.3036
lwrist 1.06977
lhand -6.82435 -25.3816
lfingers 7.12502
lthumb 19.0397 3.70646
rfemur 12.092 -7.03877 14.0535
rtibia 5.04758
rfoot -19.5325 -3.32257
rtoes 15.1262
lfemur 11.9407 -0.664596 -15.0346
ltibia 3.65823
lfoot -13.7955 11.2218
ltoes -12.3047
199
root -28.184 16.9923 2.73649 118.009 85.9966 120.445
lowerback 4.30642 0.733076 -3.19069
upperback 0.973371 0.845339 -0.437602
thorax -1.45277 0.440366 1.293
lowerneck -22.6497 2.67585 4.75058
upperneck 28.5538 3.12104 -2.08045
head 13.555 1.7314 -1.02868
rclavicle -8.06942e-015 -1.78906e-015
rhumerus -7.35741 29.5978 -72.7444
rradius 38.6137
rwrist -1.41986
rhand -6.45465 -32.8716
rfingers 7.12502
rthumb 19.3952 -61.9243
lclavicle -8.06942e-015 -1.78906e-015
lhumerus 1.75164 -30.9507 63.8271
lradius 39.3381
lwrist 1.29953
lhand -6.91651 -25.4467
lfingers 7.12502
lthumb 18.9511 3.65006
rfemur 12.1663 -6.89289 14.3674
rtibia 4.82239
rfoot -19.5554 -3.53833
rtoes 15.7658
lfemur 11.7075 -0.516672 -14.726
ltibia 3.98675
lfoot -13.7725 10.9789
ltoes -12.2454
200
root -28.1772 16.9859 2.75067 121.026 86.0797 123.472
lowerback 4.3493 0.679711 -2.91804
upperback 0.988715 0.785928 -0.337458
thorax -1.45614 0.409395 1.24608
lowerneck -22.6942 2.67473 4.74462
upperneck 28.5682 3.14918 -2.17082
head 13.573 1.72959 -1.05805
rclavicle -1.69215e-014 -1.19271e-014
rhumerus -6.84607 29.8165 -72.2824
rradius 38.7147
rwrist -1.64042
rhand -6.65097 -33.2736
rfingers 7.12502
rthumb 19.2065 -62.3452
lclavicle -1.69215e-014 -1.19271e-014
lhumerus 2.1688 -31.2629 63.3561
lradius 39.6332
lwrist 1.67121
lhand -6.85912 -25.2667
lfingers 7.12502
lthumb 19.0063 3.82463
rfemur 12.2436 -7.1247 14.5618
rtibia 4.78552
rfoot -19.5621 -3.31749
rtoes 15.9714
lfemur 11.465 -0.142046 -14.2626
ltibia 4.42873
lfoot -13.6698 10.5193
ltoes -12.3833
201
root -28.1724 16.9844 2.76506 120.782 85.8593 123.253
lowerback 4.39351 0.680078 -3.04968
upperback 1.02432 0.780184 -0.364242
thorax -1.4453 0.406887 1.2924
lowerneck -22.6955 2.67633 4.78848
upperneck 28.481 3.1238 -2.15934
head 13.5362 1.72294 -1.06565
rclavicle 4.93234e-015 -1.98785e-016
rhumerus -6.38507 30.0487 -71.8354
rradius 38.9094
rwrist -2.05178
rhand -6.59944 -33.7983
rfingers 7.12502
rthumb 19.256 -62.865
lclavicle 4.93234e-015 -1.98785e-016
lhumerus 2.59507 -31.9263 62.6988
lradius 40.1228
lwrist 2.2938
lhand -7.0256 -24.9545
lfingers 7.12502
lthumb 18.8462 4.15254
rfemur 12.2856 -7.47318 14.2346
rtibia 4.9064
rfoot -19.5762 -3.07365
rtoes 15.7381
lfemur 11.2328 0.185487 -14.3082
ltibia 4.91897
lfoot -13.6935 10.1532
ltoes -12.4835
202
root -28.1689 16.9853 2.78254 119.353 85.6101 121.812
lowerback 4.4129 0.674056 -3.27671
upperback 1.05294 0.762189 -0.412043
thorax -1.42803 0.398553 1.37151
lowerneck -22.6442 2.66605 4.81487
upperneck 28.4185 3.10062 -2.16735
head 13.4989 1.714 -1.07796
rclavicle -3.0501e-015 -1.39149e-015
rhumerus -5.87172 30.2284 -71.4297
rradius 39.0609
rwrist -2.26857
rhand -6.15429 -33.9823
rfingers 7.12502
rthumb 19.684 -63.0057
lclavicle -3.0501e-015 -1.39149e-015
lhumerus 3.42139 -31.9214 62.3029
lradius 39.7976
lwrist 2.36179
lhand -7.06649 -24.9827
lfingers 7.12502
lthumb 18.8069 4.12812
rfemur 12.2837 -7.20013 14.1025
rtibia 4.90246
rfoot -19.6894 -3.44726
rtoes 15.5578
lfemur 11.0237 0.250386 -14.5441
ltibia 5.30149
lfoot -13.8538 10.0195
ltoes -11.9924
203
root -28.1626 16.9814 2.79962 119.523 85.5611 121.962
lowerback 4.43889 0.650069 -3.25625
upperback 1.08205 0.731496 -0.379347
thorax -1.41133 0.382718 1.39531
lowerneck -22.6082 2.64484 4.68927
upperneck 28.3199 3.09658 -2.11554
head 13.4461 1.70387 -1.0374
rclavicle 7.92033e-015 -3.97569e-016
rhumerus -5.32187 30.2881 -70.9393
rradius 39.1034
rwrist -1.9824
rhand -5.44669 -33.3898
rfingers 7.12502
rthumb 20.3642 -62.3421
lclavicle 7.92033e-015 -3.97569e-016
lhumerus 3.68849 -31.4761 62.1396
lradius 40.1105
lwrist 1.88636
lhand -6.8803 -24.8155
lfingers 7.12502
lthumb 18.9859 4.27784
rfemur 12.3305 -6.92 14.2747
rtibia 4.78048
rfoot -19.7641 -3.80519
rtoes 15.3999
lfemur 10.8577 0.251824 -14.5099
ltibia 5.63478
lfoot -14.0011 9.84092
ltoes -10.9686
204
root -28.1545 16.9787 2.8157 120.456 85.4785 122.888
lowerback 4.48516 0.62074 -3.19123
upperback 1.10577 0.694581 -0.368091
thorax -1.41043 0.363978 1.37224
lowerneck -22.8853 2.60524 4.69226
upperneck 28.5204 3.05828 -2.20236
head 13.5882 1.67489 -1.07733
rclavicle -6.37353e-015 7.15625e-015
rhumerus -4.88334 30.5993 -70.5071
rradius 39.312
rwrist -2.39823
rhand -5.90911 -34.0541
rfingers 7.12502
rthumb 19.9197 -63.0531
lclavicle -6.37353e-015 7.15625e-015
lhumerus 4.27097 -31.7607 61.6191
lradius 40.2069
lwrist 1.80086
lhand -7.1956 -24.5266
lfingers 7.12502
lthumb 18.6827 4.59624
rfemur 12.3835 -7.1665 14.2228
rtibia 4.78779
rfoot -19.7749 -3.62402
rtoes 15.7576
lfemur 10.7194 0.218006 -14.4909
ltibia 5.9436
lfoot -14.1236 9.67387
ltoes -9.86848
205
root -28.1473 16.9775 2.83447 122.349 85.4436 124.811
lowerback 4.55743 0.589338 -3.0667
upperback 1.12015 0.656615 -0.333648
thorax -1.43334 0.344875 1.33942
lowerneck -22.8667 2.56325 4.53728
upperneck 28.4293 2.97991 -1.98567
head 13.5355 1.65275 -0.979824
rclavicle -1.1368e-015 1.59028e-015
rhumerus -4.55568 30.5244 -70.1595
rradius 39.6264
rwrist -2.39399
rhand -5.91944 -34.1229
rfingers 7.12502
rthumb 19.9098 -63.123
lclavicle -1.1368e-015 1.59028e-015
lhumerus 4.6747 -32.0571 61.098
lradius 40.5134
lwrist 1.88042
lhand -7.36301 -24.3639
lfingers 7.12502
lthumb 18.5217 4.77436
rfemur 12.4479 -7.22545 14.3742
rtibia 4.81886
rfoot -19.8205 -3.68051
rtoes 16.0649
lfemur 10.6046 0.186995 -14.3363
ltibia 6.19932
lfoot -14.1271 9.6029
ltoes -9.80543
206
root -28.1407 16.9754 2.85116 123.371 85.4334 125.842
lowerback 4.48417 0.57054 -2.95151
upperback 1.21217 0.642552 -0.323048
thorax -1.29612 0.335196 1.28779
lowerneck -22.8952 2.63607 4.83526
upperneck 28.351 3.0501 -2.25246
head 13.5225 1.6756 -1.1229
rclavicle 2.65874e-015 -2.5842e-015
rhumerus -3.58067 30.5258 -69.7148
rradius 39.2497
rwrist -2.65555
rhand -5.86136 -33.7581
rfingers 7.12502
rthumb 19.9656 -62.7524
lclavicle 2.65874e-015 -2.5842e-015
lhumerus 5.23978 -32.0442 60.5634
lradius 40.7145
lwrist 2.06128
lhand -7.14383 -24.5388
lfingers 7.12502
lthumb 18.7325 4.5792
rfemur 12.4479 -7.20691 14.5205
rtibia 4.89418
rfoot -19.9004 -3.80823
rtoes 15.8985
lfemur 10.4341 0.182299 -14.2176
ltibia 6.49375
lfoot -14.2268 9.60431
ltoes -10.0278
207
root -28.1357 16.9778 2.86396 122.699 85.3164 125.209
lowerback 4.48873 0.557883 -2.94259
upperback 1.30582 0.62889 -0.382823
thorax -1.20104 0.327021 1.22265
lowerneck -22.6756 2.715 5.23966
upperneck 27.9784 3.14649 -2.69841
head 13.3421 1.69351 -1.35082
rclavicle -7.16867e-015 -7.35503e-015
rhumerus -3.00902 30.4148 -69.2721
rradius 39.2956
rwrist -2.34877
rhand -5.19243 -32.951
rfingers 7.12502
rthumb 20.6085 -61.877
lclavicle -7.16867e-015 -7.35503e-015
lhumerus 5.90326 -31.7456 60.1257
lradius 40.5545
lwrist 2.03505
lhand -7.07894 -25.2075
lfingers 7.12502
lthumb 18.7949 3.90447
rfemur 12.4126 -7.34105 14.3519
rtibia 5.10237
rfoot -19.9648 -3.60054
rtoes 16.1287
lfemur 10.087 0.524669 -14.2017
ltibia 7.21319
lfoot -14.6051 9.29063
ltoes -9.50048
208
root -28.129 16.982 2.87476 124.29 85.4378 126.882
lowerback 4.8702 0.549707 -2.6736
upperback 1.16721 0.614465 -0.28154
thorax -1.55451 0.324151 1.17257
lowerneck -22.7713 2.65333 5.05408
upperneck 28.3729 3.07945 -2.48449
head 13.516 1.68252 -1.24719
rclavicle 2.36057e-016 -1.19271e-015
rhumerus -2.91541 31.0036 -68.8911
rradius 39.6412
rwrist -2.99136
rhand -5.5466 -33.7666
rfingers 7.12502
rthumb 20.2682 -62.7291
lclavicle 2.36057e-016 -1.19271e-015
lhumerus 6.19776 -31.6255 60.0365
lradius 40.3257
lwrist 1.85613
lhand -7.3136 -25.6499
lfingers 7.12502
lthumb 18.5692 3.48377
rfemur 12.4563 -7.21191 14.6813
rtibia 5.1864
rfoot -20.0503 -3.75596
rtoes 16.1876
lfemur 10.1693 0.346568 -14.0178
ltibia 7.20113
lfoot -14.7541 9.48677
ltoes -9.06393
209
root -28.1194 16.9807 2.88599 126.942 85.7322 129.525
lowerback 4.82117 0.505324 -2.22773
upperback 1.1893 0.580818 -0.126118
thorax -1.50055 0.304795 1.08482
lowerneck -22.6448 2.65812 5.04298
upperneck 28.3087 3.1337 -2.59571
head 13.4669 1.68986 -1.28011
rclavicle -5.85172e-015 5.56597e-015
rhumerus -2.36513 31.4058 -68.3583
rradius 39.7669
rwrist -3.28228
rhand -5.52636 -34.0576
rfingers 7.12502
rthumb 20.2876 -63.018
lclavicle -5.85172e-015 5.56597e-015
lhumerus 6.65848 -31.6508 59.6479
lradius 40.5503
lwrist 2.09664
lhand -7.3046 -25.0335
lfingers 7.12502
lthumb 18.5778 4.09934
rfemur 12.463 -7.08464 15.2461
rtibia 5.15102
rfoot -20.1236 -3.99412
rtoes 16.1231
lfemur 10.0453 0.455053 -13.4833
ltibia 7.49149
lfoot -14.7723 9.34607
ltoes -9.07752
